<svg preserveAspectRatio="none" width="100%" height="100%" overflow="visible" style="display: block;" viewBox="0 0 17.5877 19.9997" fill="none" xmlns="http://www.w3.org/2000/svg">
<g id="Group">
<path id="Vector" d="M17.3232 5.90675C17.0611 5.59376 16.5944 5.55261 16.2814 5.81361L14.2301 7.53669L13.2868 5.19955C13.2533 5.11182 13.2024 5.03818 13.1439 4.9732C12.9511 4.54432 12.6164 4.1761 12.1551 3.96274C11.9547 3.87177 11.7479 3.82304 11.541 3.79921C11.4955 3.77538 11.4544 3.74398 11.4024 3.72773L7.79271 2.72161C7.59019 2.66638 7.38658 2.70212 7.2198 2.79959C7.02161 2.86674 6.85157 3.01078 6.77035 3.2198L5.41116 6.71468C5.26387 7.09482 5.45232 7.52369 5.83354 7.67315C6.21259 7.82044 6.64255 7.63091 6.79092 7.24969L7.93892 4.29848L9.58293 4.75551C9.54286 4.82049 9.49954 4.88114 9.46705 4.95045L7.3595 9.5186C7.32918 9.58575 7.31294 9.65398 7.29128 9.72329L4.72995 14.0174L0.443384 15.4513C-0.0418057 15.8142 -0.144692 16.4975 0.213785 16.9827C0.574429 17.469 1.25998 17.5719 1.74408 17.2134L6.13029 15.7026C6.26458 15.6051 6.36205 15.4773 6.4357 15.3398C6.49093 15.2813 6.55374 15.2347 6.59598 15.1622L8.12303 12.6019L10.8338 14.912L7.9335 18.1805C7.53387 18.6311 7.57394 19.3253 8.02664 19.7238C8.47826 20.1256 9.1703 20.0834 9.5721 19.6307L13.1915 15.5531C13.3042 15.4275 13.3713 15.2824 13.4168 15.1308C13.4439 15.0485 13.4439 14.9629 13.4504 14.8773C13.4504 14.834 13.4666 14.795 13.4634 14.755C13.4536 14.4561 13.3323 14.1658 13.0876 13.959L10.5934 11.8319C10.7732 11.6608 10.9259 11.4572 11.0363 11.2178L12.6522 7.71863L13.1699 9.09731C13.1915 9.21969 13.2327 9.3399 13.3193 9.44062C13.3973 9.53376 13.4969 9.59549 13.6031 9.63881C13.6139 9.64423 13.6269 9.64531 13.6399 9.64856C13.707 9.67239 13.7753 9.69513 13.8457 9.69838C13.9291 9.70596 14.0135 9.69513 14.0991 9.67131C14.1013 9.67022 14.1023 9.67022 14.1023 9.67022C14.1251 9.66481 14.1478 9.66914 14.1706 9.65939C14.2908 9.61391 14.3828 9.53701 14.4619 9.44712L17.4055 6.94861C17.7185 6.68544 17.5864 6.21974 17.3232 5.90675Z" fill="var(--fill-0, #242424)"/>
<path id="Vector_2" d="M13.6002 4.12628C14.7397 4.12628 15.6634 3.20258 15.6634 2.06314C15.6634 0.923699 14.7397 0 13.6002 0C12.4608 0 11.5371 0.923699 11.5371 2.06314C11.5371 3.20258 12.4608 4.12628 13.6002 4.12628Z" fill="var(--fill-0, #242424)"/>
</g>
</svg>
