<svg preserveAspectRatio="none" width="100%" height="100%" overflow="visible" style="display: block;" viewBox="0 0 18 20" fill="none" xmlns="http://www.w3.org/2000/svg">
<g id="Group">
<path id="Vector" d="M17.7293 5.90702C17.4611 5.59403 16.9834 5.55288 16.6631 5.81388L14.5637 7.53696L13.5983 5.19981C13.564 5.11209 13.5119 5.03844 13.452 4.97346C13.2547 4.54459 12.9122 4.17636 12.44 3.96301C12.235 3.87204 12.0233 3.8233 11.8116 3.79947C11.765 3.77565 11.7229 3.74424 11.6697 3.72799L7.9754 2.72187C7.76813 2.66664 7.55975 2.70238 7.38905 2.79985C7.18621 2.867 7.0122 3.01104 6.92906 3.22006L5.53802 6.71495C5.38728 7.09509 5.58014 7.52396 5.9703 7.67342C6.35824 7.82071 6.79827 7.63118 6.95012 7.24996L8.12503 4.29874L9.80759 4.75578C9.76657 4.82076 9.72224 4.88141 9.68899 4.95072L7.53204 9.51887C7.501 9.58602 7.48438 9.65425 7.46221 9.72356L4.84084 14.0177L0.453778 15.4516C-0.0427858 15.8144 -0.148084 16.4978 0.218797 16.983C0.587895 17.4693 1.28951 17.5722 1.78497 17.2137L6.274 15.7029C6.41144 15.6054 6.5112 15.4776 6.58657 15.3401C6.6431 15.2816 6.70738 15.235 6.75061 15.1625L8.31346 12.6022L11.0878 14.9123L8.11949 18.1808C7.71049 18.6314 7.7515 19.3256 8.21481 19.7241C8.67702 20.1259 9.38528 20.0837 9.7965 19.631L13.5008 15.5534C13.6161 15.4278 13.6848 15.2827 13.7313 15.1311C13.759 15.0487 13.759 14.9632 13.7657 14.8776C13.7657 14.8343 13.7823 14.7953 13.779 14.7553C13.769 14.4563 13.6449 14.1661 13.3944 13.9592L10.8417 11.8322C11.0257 11.6611 11.182 11.4575 11.2951 11.2181L12.9488 7.7189L13.4786 9.09758C13.5008 9.21996 13.5429 9.34018 13.6316 9.4409C13.7114 9.53404 13.8134 9.59577 13.922 9.63909C13.9331 9.6445 13.9464 9.64559 13.9597 9.64884C14.0284 9.67266 14.0982 9.69541 14.1703 9.69866C14.2556 9.70624 14.3421 9.69541 14.4296 9.67158C14.4318 9.6705 14.4329 9.6705 14.4329 9.6705C14.4562 9.66508 14.4795 9.66941 14.5028 9.65967C14.6258 9.61418 14.72 9.53729 14.8009 9.4474L17.8136 6.94888C18.1339 6.68571 17.9987 6.22001 17.7293 5.90702Z" fill="var(--fill-0, #F4F4F4)"/>
<path id="Vector_2" d="M13.9189 4.12629C15.0851 4.12629 16.0304 3.20259 16.0304 2.06314C16.0304 0.923701 15.0851 0 13.9189 0C12.7528 0 11.8074 0.923701 11.8074 2.06314C11.8074 3.20259 12.7528 4.12629 13.9189 4.12629Z" fill="var(--fill-0, #F4F4F4)"/>
</g>
</svg>
