<svg preserveAspectRatio="none" width="100%" height="100%" overflow="visible" style="display: block;" viewBox="0 0 16.5 18.1667" fill="none" xmlns="http://www.w3.org/2000/svg">
<path id="Icon" d="M11.5833 4.08333V3.41667C11.5833 2.48325 11.5833 2.01654 11.4017 1.66002C11.2419 1.34641 10.9869 1.09145 10.6733 0.931657C10.3168 0.750001 9.85009 0.750001 8.91667 0.750001H7.58333C6.64991 0.750001 6.1832 0.750001 5.82668 0.931657C5.51308 1.09145 5.25811 1.34641 5.09832 1.66002C4.91667 2.01654 4.91667 2.48325 4.91667 3.41667V4.08333M6.58333 8.66667V12.8333M9.91667 8.66667V12.8333M0.75 4.08333H15.75M14.0833 4.08333V13.4167C14.0833 14.8168 14.0833 15.5169 13.8108 16.0516C13.5712 16.5221 13.1887 16.9045 12.7183 17.1442C12.1835 17.4167 11.4835 17.4167 10.0833 17.4167H6.41667C5.01654 17.4167 4.31647 17.4167 3.78169 17.1442C3.31129 16.9045 2.92883 16.5221 2.68915 16.0516C2.41667 15.5169 2.41667 14.8168 2.41667 13.4167V4.08333" stroke="var(--stroke-0, #242424)" stroke-width="1.5" stroke-linecap="round" stroke-linejoin="round"/>
</svg>
