<svg preserveAspectRatio="none" width="100%" height="100%" overflow="visible" style="display: block;" viewBox="0 0 28 28" fill="none" xmlns="http://www.w3.org/2000/svg">
<g id="Frame 60" opacity="0.8">
<path id="Vector" fill-rule="evenodd" clip-rule="evenodd" d="M21.21 5.24986C20.02 5.17986 17.57 5.10986 13.86 5.10986H13.37C9.80002 5.10986 7.42006 5.17986 6.23006 5.31986C4.62006 5.45986 3.50003 5.87986 2.87003 6.43986C2.31003 6.92986 1.89004 7.83986 1.75004 9.02986C1.68004 9.79986 1.61003 11.4099 1.61003 13.8599V14.2099C1.61003 16.5199 1.68003 18.1299 1.82003 18.8999C2.03003 20.0199 2.38006 20.8599 3.08006 21.3499C3.78006 21.9099 4.97004 22.2599 6.65004 22.3999C7.84004 22.4699 10.29 22.5399 14 22.5399H14.4901C18.06 22.5399 20.4401 22.4699 21.6301 22.3299C23.2401 22.1899 24.36 21.7699 24.99 21.2099C25.55 20.7199 25.97 19.8099 26.11 18.6199C26.18 17.8499 26.25 16.2399 26.25 13.7899V13.4399C26.25 11.1299 26.18 9.51986 26.04 8.74986C25.83 7.62986 25.4801 6.78986 24.7801 6.29986C24.0801 5.73986 22.89 5.38986 21.21 5.24986ZM18.4801 13.8599L10.7801 18.4799V9.23986L18.4801 13.8599Z" fill="var(--fill-0, #242424)"/>
</g>
</svg>
